<?xml version="1.0" encoding="UTF-8" standalone="no"?>
<!DOCTYPE svg PUBLIC "-//W3C//DTD SVG 1.1//EN" "http://www.w3.org/Graphics/SVG/1.1/DTD/svg11.dtd">
<svg width="100%" height="100%" viewBox="0 0 2481 786" version="1.1" xmlns="http://www.w3.org/2000/svg" xmlns:xlink="http://www.w3.org/1999/xlink" xml:space="preserve" xmlns:serif="http://www.serif.com/" style="fill-rule:evenodd;clip-rule:evenodd;stroke-linejoin:round;stroke-miterlimit:1.41421;">
    <g transform="matrix(1,0,0,1,0,-2722.63)">
        <g transform="matrix(1.302,0,0,1.302,-57.2881,-695.125)">
            <g transform="matrix(1,0,0,1,44,2592.29)">
                <path d="M0,32.706L994.134,207.999L1905,112.263L1905,635.81L0,635.81L0,32.706Z" style="fill:rgb(192,219,227);"/>
            </g>
            <g transform="matrix(1,0,0,1,44,2592.29)">
                <path d="M541.784,380.258L1905,260.992L1905,635.81L0,635.81L0,104.205L541.784,380.258Z" style="fill:rgb(96,96,96);"/>
            </g>
            <g transform="matrix(1,0,0,1,44,2592.29)">
                <path d="M0,263.947L607.993,449.829L1905,267.547L1905,635.81L0,635.81L0,263.947Z" style="fill:rgb(33,33,33);"/>
            </g>
        </g>
    </g>
</svg>
