<?xml version="1.0" encoding="UTF-8" standalone="no"?>
<!DOCTYPE svg PUBLIC "-//W3C//DTD SVG 1.1//EN" "http://www.w3.org/Graphics/SVG/1.1/DTD/svg11.dtd">
<svg width="100%" height="100%" viewBox="0 0 394 77" version="1.1" xmlns="http://www.w3.org/2000/svg" xmlns:xlink="http://www.w3.org/1999/xlink" xml:space="preserve" xmlns:serif="http://www.serif.com/" style="fill-rule:evenodd;clip-rule:evenodd;stroke-linejoin:round;stroke-miterlimit:1.41421;">
    <g transform="matrix(1,0,0,1,-784,-302)">
        <path d="M1178,379L784,379L784,302L1178,302L1178,379ZM853.5,309.5L791.5,309.5L791.5,371.5L853.5,371.5L853.5,309.5ZM1055.6,348.675C1055.6,350.208 1055.38,351.6 1054.92,352.85C1054.47,354.1 1053.67,355.167 1052.53,356.05C1051.38,356.933 1049.8,357.625 1047.8,358.125C1045.8,358.625 1043.25,358.875 1040.15,358.875C1037.05,358.875 1034.5,358.625 1032.5,358.125C1030.5,357.625 1028.92,356.933 1027.78,356.05C1026.62,355.167 1025.83,354.1 1025.38,352.85C1024.92,351.6 1024.7,350.208 1024.7,348.675L1024.7,323.925C1024.7,323.292 1024.84,322.833 1025.12,322.55C1025.41,322.267 1025.87,322.125 1026.5,322.125L1034.35,322.125C1034.98,322.125 1035.44,322.267 1035.72,322.55C1036.01,322.833 1036.15,323.292 1036.15,323.925L1036.15,346.725C1036.15,347.392 1036.4,347.95 1036.9,348.4C1037.4,348.85 1038.52,349.075 1040.25,349.075C1042.02,349.075 1043.15,348.85 1043.65,348.4C1044.15,347.95 1044.4,347.392 1044.4,346.725L1044.4,323.925C1044.4,323.292 1044.54,322.833 1044.83,322.55C1045.11,322.267 1045.57,322.125 1046.2,322.125L1053.8,322.125C1054.43,322.125 1054.89,322.267 1055.17,322.55C1055.46,322.833 1055.6,323.292 1055.6,323.925L1055.6,348.675ZM1117.95,322.125L1103.95,322.125C1100.72,322.125 1098.18,322.883 1096.35,324.4C1094.52,325.917 1093.6,328.092 1093.6,330.925L1093.6,336.175C1093.6,338.975 1094.31,340.975 1095.73,342.175C1097.14,343.375 1099.02,344.142 1101.35,344.475L1108.85,345.525C1109.28,345.558 1109.61,345.708 1109.83,345.975C1110.04,346.242 1110.15,346.658 1110.15,347.225C1110.15,347.625 1110.04,347.967 1109.83,348.25C1109.61,348.533 1109.28,348.675 1108.85,348.675L1095.4,348.675C1094.77,348.675 1094.31,348.817 1094.03,349.1C1093.74,349.383 1093.6,349.842 1093.6,350.475L1093.6,356.325C1093.6,356.958 1093.74,357.417 1094.03,357.7C1094.31,357.983 1094.77,358.125 1095.4,358.125L1111.2,358.125C1114.4,358.125 1116.92,357.367 1118.78,355.85C1120.62,354.333 1121.55,352.158 1121.55,349.325L1121.55,344.075C1121.55,341.275 1120.83,339.275 1119.4,338.075C1117.97,336.875 1116.08,336.108 1113.75,335.775L1106.3,334.775C1105.87,334.742 1105.53,334.575 1105.3,334.275C1105.07,333.975 1104.95,333.608 1104.95,333.175C1104.95,332.742 1105.07,332.383 1105.3,332.1C1105.53,331.817 1105.87,331.675 1106.3,331.675L1117.95,331.675C1118.58,331.675 1119.04,331.533 1119.33,331.25C1119.61,330.967 1119.75,330.508 1119.75,329.875L1119.75,323.925C1119.75,323.292 1119.61,322.833 1119.33,322.55C1119.04,322.267 1118.58,322.125 1117.95,322.125ZM1085.7,322.125L1071.7,322.125C1068.47,322.125 1065.93,322.883 1064.1,324.4C1062.27,325.917 1061.35,328.092 1061.35,330.925L1061.35,336.175C1061.35,338.975 1062.06,340.975 1063.47,342.175C1064.89,343.375 1066.77,344.142 1069.1,344.475L1076.6,345.525C1077.03,345.558 1077.36,345.708 1077.58,345.975C1077.79,346.242 1077.9,346.658 1077.9,347.225C1077.9,347.625 1077.79,347.967 1077.58,348.25C1077.36,348.533 1077.03,348.675 1076.6,348.675L1063.15,348.675C1062.52,348.675 1062.06,348.817 1061.78,349.1C1061.49,349.383 1061.35,349.842 1061.35,350.475L1061.35,356.325C1061.35,356.958 1061.49,357.417 1061.78,357.7C1062.06,357.983 1062.52,358.125 1063.15,358.125L1078.95,358.125C1082.15,358.125 1084.67,357.367 1086.53,355.85C1088.38,354.333 1089.3,352.158 1089.3,349.325L1089.3,344.075C1089.3,341.275 1088.58,339.275 1087.15,338.075C1085.72,336.875 1083.83,336.108 1081.5,335.775L1074.05,334.775C1073.62,334.742 1073.28,334.575 1073.05,334.275C1072.82,333.975 1072.7,333.608 1072.7,333.175C1072.7,332.742 1072.82,332.383 1073.05,332.1C1073.28,331.817 1073.62,331.675 1074.05,331.675L1085.7,331.675C1086.33,331.675 1086.79,331.533 1087.08,331.25C1087.36,330.967 1087.5,330.508 1087.5,329.875L1087.5,323.925C1087.5,323.292 1087.36,322.833 1087.08,322.55C1086.79,322.267 1086.33,322.125 1085.7,322.125ZM965,322.125L957.25,322.125C956.616,322.125 956.158,322.267 955.875,322.55C955.592,322.833 955.45,323.292 955.45,323.925L955.45,356.325C955.45,356.958 955.592,357.417 955.875,357.7C956.158,357.983 956.617,358.125 957.25,358.125L982.7,358.125C983.333,358.125 983.792,357.983 984.075,357.7C984.358,357.417 984.5,356.958 984.5,356.325L984.5,340.575C984.5,339.942 984.358,339.483 984.075,339.2C983.792,338.917 983.334,338.775 982.7,338.775L975.45,338.775C974.816,338.775 974.358,338.917 974.075,339.2C973.792,339.483 973.65,339.942 973.65,340.575L973.65,348.675L966.8,348.675L966.8,323.925C966.8,323.292 966.658,322.833 966.375,322.55C966.092,322.267 965.634,322.125 965,322.125ZM999.75,322.125L992,322.125C991.366,322.125 990.908,322.267 990.625,322.55C990.342,322.833 990.2,323.292 990.2,323.925L990.2,356.325C990.2,356.958 990.342,357.417 990.625,357.7C990.908,357.983 991.367,358.125 992,358.125L1017.45,358.125C1018.08,358.125 1018.54,357.983 1018.83,357.7C1019.11,357.417 1019.25,356.958 1019.25,356.325L1019.25,340.575C1019.25,339.942 1019.11,339.483 1018.83,339.2C1018.54,338.917 1018.08,338.775 1017.45,338.775L1010.2,338.775C1009.57,338.775 1009.11,338.917 1008.83,339.2C1008.54,339.483 1008.4,339.942 1008.4,340.575L1008.4,348.675L1001.55,348.675L1001.55,323.925C1001.55,323.292 1001.41,322.833 1001.12,322.55C1000.84,322.267 1000.38,322.125 999.75,322.125ZM890.55,322.125L882.8,322.125C882.166,322.125 881.708,322.267 881.425,322.55C881.142,322.833 881,323.292 881,323.925L881,356.325C881,356.958 881.142,357.417 881.425,357.7C881.708,357.983 882.167,358.125 882.8,358.125L890.55,358.125C891.183,358.125 891.642,357.983 891.925,357.7C892.208,357.417 892.35,356.958 892.35,356.325L892.35,345.225L900.7,345.225L900.7,356.325C900.7,356.958 900.842,357.417 901.125,357.7C901.408,357.983 901.867,358.125 902.5,358.125L910.25,358.125C910.883,358.125 911.342,357.983 911.625,357.7C911.908,357.417 912.05,356.958 912.05,356.325L912.05,323.925C912.05,323.292 911.908,322.833 911.625,322.55C911.342,322.267 910.884,322.125 910.25,322.125L902.5,322.125C901.866,322.125 901.408,322.267 901.125,322.55C900.842,322.833 900.7,323.292 900.7,323.925L900.7,334.775L892.35,334.775L892.35,323.925C892.35,323.292 892.208,322.833 891.925,322.55C891.642,322.267 891.184,322.125 890.55,322.125ZM1148.55,322.125L1135.1,322.125C1134.43,322.125 1133.89,322.258 1133.48,322.525C1133.06,322.792 1132.75,323.208 1132.55,323.775L1128.2,335.125C1127.53,336.858 1127.04,338.375 1126.73,339.675C1126.41,340.975 1126.25,342.125 1126.25,343.125L1126.25,356.325C1126.25,356.958 1126.39,357.417 1126.67,357.7C1126.96,357.983 1127.42,358.125 1128.05,358.125L1135.4,358.125C1136.03,358.125 1136.49,357.983 1136.78,357.7C1137.06,357.417 1137.2,356.958 1137.2,356.325L1137.2,349.325L1146.05,349.325L1146.05,356.325C1146.05,356.958 1146.21,357.417 1146.53,357.7C1146.84,357.983 1147.33,358.125 1148,358.125L1155.55,358.125C1156.18,358.125 1156.64,357.983 1156.92,357.7C1157.21,357.417 1157.35,356.958 1157.35,356.325L1157.35,343.125C1157.35,342.125 1157.19,340.975 1156.88,339.675C1156.56,338.375 1156.07,336.858 1155.4,335.125L1151.05,323.775C1150.85,323.208 1150.54,322.792 1150.12,322.525C1149.71,322.258 1149.18,322.125 1148.55,322.125ZM940.5,322.125L927.05,322.125C926.383,322.125 925.842,322.258 925.425,322.525C925.008,322.792 924.7,323.208 924.5,323.775L920.15,335.125C919.483,336.858 918.992,338.375 918.675,339.675C918.358,340.975 918.2,342.125 918.2,343.125L918.2,356.325C918.2,356.958 918.342,357.417 918.625,357.7C918.908,357.983 919.367,358.125 920,358.125L927.35,358.125C927.983,358.125 928.442,357.983 928.725,357.7C929.008,357.417 929.15,356.958 929.15,356.325L929.15,349.325L938,349.325L938,356.325C938,356.958 938.158,357.417 938.475,357.7C938.792,357.983 939.283,358.125 939.95,358.125L947.5,358.125C948.133,358.125 948.592,357.983 948.875,357.7C949.158,357.417 949.3,356.958 949.3,356.325L949.3,343.125C949.3,342.125 949.142,340.975 948.825,339.675C948.508,338.375 948.017,336.858 947.35,335.125L943,323.775C942.8,323.208 942.492,322.792 942.075,322.525C941.658,322.258 941.134,322.125 940.5,322.125ZM1145.55,340.225L1137.7,340.225L1140.05,332.625C1140.18,332.325 1140.33,332.108 1140.48,331.975C1140.62,331.842 1140.8,331.775 1141,331.775L1142.25,331.775C1142.45,331.775 1142.62,331.842 1142.78,331.975C1142.92,332.108 1143.07,332.325 1143.2,332.625L1145.55,340.225ZM937.5,340.225L929.65,340.225L932,332.625C932.133,332.325 932.275,332.108 932.425,331.975C932.575,331.842 932.75,331.775 932.95,331.775L934.2,331.775C934.4,331.775 934.575,331.842 934.725,331.975C934.875,332.108 935.017,332.325 935.15,332.625L937.5,340.225Z" style="fill:rgb(33,33,33);"/>
        <g transform="matrix(0.62,0,0,0.62,791.5,309.5)">
            <path d="M36,92L8,92L8,64L36,64L36,92ZM72,88L84,88L84,92L68,92L68,88L64,88L64,84L72,84L72,88ZM44,88L44,92L40,92L40,88L44,88ZM36,60L24,60L24,56L20,56L20,52L24,52L24,48L20,48L20,44L16,44L16,40L24,40L24,44L28,44L28,40L40,40L40,32L44,32L44,28L48,28L48,24L40,24L40,20L44,20L44,16L40,16L40,8L48,8L48,16L52,16L52,12L60,12L60,24L52,24L52,28L48,28L48,32L44,32L44,40L40,40L40,44L32,44L32,48L28,48L28,52L24,52L24,56L28,56L28,52L32,52L32,48L40,48L40,52L44,52L44,56L56,56L56,44L60,44L60,48L68,48L68,44L64,44L64,40L68,40L68,44L76,44L76,40L80,40L80,44L84,44L84,40L92,40L92,52L88,52L88,56L92,56L92,64L88,64L88,56L84,56L84,48L80,48L80,44L76,44L76,48L72,48L72,60L76,60L76,68L84,68L84,76L88,76L88,80L84,80L84,84L80,84L80,80L76,80L76,72L72,72L72,68L68,68L68,76L64,76L64,84L60,84L60,92L48,92L48,84L40,84L40,76L44,76L44,72L40,72L40,60L44,60L44,56L36,56L36,60ZM92,84L92,88L88,88L88,84L92,84ZM32,68L12,68L12,88L32,88L32,68ZM28,84L16,84L16,72L28,72L28,84ZM52,72L48,72L48,76L44,76L44,80L48,80L48,84L52,84L52,80L56,80L56,84L60,84L60,76L64,76L64,72L56,72L56,76L52,76L52,72ZM72,80L68,80L68,76L72,76L72,80ZM68,52L64,52L64,56L56,56L56,60L48,60L48,68L60,68L60,60L64,60L64,64L68,64L68,52ZM84,64L80,64L80,60L84,60L84,64ZM12,56L16,56L16,60L12,60L12,56L8,56L8,40L12,40L12,56ZM36,52L32,52L32,56L36,56L36,52ZM80,56L76,56L76,52L80,52L80,56ZM48,44L52,44L52,52L48,52L48,48L44,48L44,40L48,40L48,44ZM88,44L84,44L84,48L88,48L88,44ZM36,36L8,36L8,8L36,8L36,36ZM52,36L48,36L48,32L52,32L52,36ZM92,36L64,36L64,8L92,8L92,36ZM60,36L56,36L56,32L60,32L60,36ZM32,12L12,12L12,32L32,32L32,12ZM88,12L68,12L68,32L88,32L88,12ZM28,28L16,28L16,16L28,16L28,28ZM84,28L72,28L72,16L84,16L84,28ZM52,20L48,20L48,24L52,24L52,20Z" style="fill:rgb(33,33,33);fill-rule:nonzero;"/>
        </g>
    </g>
</svg>
