<?xml version="1.0" encoding="UTF-8" standalone="no"?>
<!DOCTYPE svg PUBLIC "-//W3C//DTD SVG 1.1//EN" "http://www.w3.org/Graphics/SVG/1.1/DTD/svg11.dtd">
<svg width="100%" height="100%" viewBox="0 0 277 37" version="1.1" xmlns="http://www.w3.org/2000/svg" xmlns:xlink="http://www.w3.org/1999/xlink" xml:space="preserve" xmlns:serif="http://www.serif.com/" style="fill-rule:evenodd;clip-rule:evenodd;stroke-linejoin:round;stroke-miterlimit:1.41421;">
    <g transform="matrix(1,0,0,1,-600.859,-407.163)">
        <g>
            <path d="M610.409,443.163L602.659,443.163C602.026,443.163 601.568,443.022 601.284,442.738C601.001,442.455 600.859,441.997 600.859,441.363L600.859,408.963C600.859,408.33 601.001,407.872 601.284,407.588C601.568,407.305 602.026,407.163 602.659,407.163L610.409,407.163C611.043,407.163 611.501,407.305 611.784,407.588C612.068,407.872 612.209,408.33 612.209,408.963L612.209,419.813L620.559,419.813L620.559,408.963C620.559,408.33 620.701,407.872 620.984,407.588C621.268,407.305 621.726,407.163 622.359,407.163L630.109,407.163C630.743,407.163 631.201,407.305 631.484,407.588C631.768,407.872 631.909,408.33 631.909,408.963L631.909,441.363C631.909,441.997 631.768,442.455 631.484,442.738C631.201,443.022 630.743,443.163 630.109,443.163L622.359,443.163C621.726,443.163 621.268,443.022 620.984,442.738C620.701,442.455 620.559,441.997 620.559,441.363L620.559,430.263L612.209,430.263L612.209,441.363C612.209,441.997 612.068,442.455 611.784,442.738C611.501,443.022 611.043,443.163 610.409,443.163Z" style="fill-rule:nonzero;"/>
            <path d="M651.859,417.663L649.509,425.263L657.359,425.263L655.009,417.663C654.876,417.363 654.734,417.147 654.584,417.013C654.434,416.88 654.259,416.813 654.059,416.813L652.809,416.813C652.609,416.813 652.434,416.88 652.284,417.013C652.134,417.147 651.993,417.363 651.859,417.663ZM649.009,441.363C649.009,441.997 648.868,442.455 648.584,442.738C648.301,443.022 647.843,443.163 647.209,443.163L639.859,443.163C639.226,443.163 638.768,443.022 638.484,442.738C638.201,442.455 638.059,441.997 638.059,441.363L638.059,428.163C638.059,427.163 638.218,426.013 638.534,424.713C638.851,423.413 639.343,421.897 640.009,420.163L644.359,408.813C644.559,408.247 644.868,407.83 645.284,407.563C645.701,407.297 646.243,407.163 646.909,407.163L660.359,407.163C660.993,407.163 661.518,407.297 661.934,407.563C662.351,407.83 662.659,408.247 662.859,408.813L667.209,420.163C667.876,421.897 668.368,423.413 668.684,424.713C669.001,426.013 669.159,427.163 669.159,428.163L669.159,441.363C669.159,441.997 669.018,442.455 668.734,442.738C668.451,443.022 667.993,443.163 667.359,443.163L659.809,443.163C659.143,443.163 658.651,443.022 658.334,442.738C658.018,442.455 657.859,441.997 657.859,441.363L657.859,434.363L649.009,434.363L649.009,441.363Z" style="fill-rule:nonzero;"/>
            <path d="M702.559,443.163L677.109,443.163C676.476,443.163 676.018,443.022 675.734,442.738C675.451,442.455 675.309,441.997 675.309,441.363L675.309,408.963C675.309,408.33 675.451,407.872 675.734,407.588C676.018,407.305 676.476,407.163 677.109,407.163L684.859,407.163C685.493,407.163 685.951,407.305 686.234,407.588C686.518,407.872 686.659,408.33 686.659,408.963L686.659,433.713L693.509,433.713L693.509,425.613C693.509,424.98 693.651,424.522 693.934,424.238C694.218,423.955 694.676,423.813 695.309,423.813L702.559,423.813C703.193,423.813 703.651,423.955 703.934,424.238C704.218,424.522 704.359,424.98 704.359,425.613L704.359,441.363C704.359,441.997 704.218,442.455 703.934,442.738C703.651,443.022 703.193,443.163 702.559,443.163Z" style="fill-rule:nonzero;"/>
            <path d="M737.309,443.163L711.859,443.163C711.226,443.163 710.768,443.022 710.484,442.738C710.201,442.455 710.059,441.997 710.059,441.363L710.059,408.963C710.059,408.33 710.201,407.872 710.484,407.588C710.768,407.305 711.226,407.163 711.859,407.163L719.609,407.163C720.243,407.163 720.701,407.305 720.984,407.588C721.268,407.872 721.409,408.33 721.409,408.963L721.409,433.713L728.259,433.713L728.259,425.613C728.259,424.98 728.401,424.522 728.684,424.238C728.968,423.955 729.426,423.813 730.059,423.813L737.309,423.813C737.943,423.813 738.401,423.955 738.684,424.238C738.968,424.522 739.109,424.98 739.109,425.613L739.109,441.363C739.109,441.997 738.968,442.455 738.684,442.738C738.401,443.022 737.943,443.163 737.309,443.163Z" style="fill-rule:nonzero;"/>
            <path d="M775.459,433.713C775.459,435.247 775.234,436.638 774.784,437.888C774.334,439.138 773.534,440.205 772.384,441.088C771.234,441.972 769.659,442.663 767.659,443.163C765.659,443.663 763.109,443.913 760.009,443.913C756.909,443.913 754.359,443.663 752.359,443.163C750.359,442.663 748.784,441.972 747.634,441.088C746.484,440.205 745.684,439.138 745.234,437.888C744.784,436.638 744.559,435.247 744.559,433.713L744.559,408.963C744.559,408.33 744.701,407.872 744.984,407.588C745.268,407.305 745.726,407.163 746.359,407.163L754.209,407.163C754.843,407.163 755.301,407.305 755.584,407.588C755.868,407.872 756.009,408.33 756.009,408.963L756.009,431.763C756.009,432.43 756.259,432.988 756.759,433.438C757.259,433.888 758.376,434.113 760.109,434.113C761.876,434.113 763.009,433.888 763.509,433.438C764.009,432.988 764.259,432.43 764.259,431.763L764.259,408.963C764.259,408.33 764.401,407.872 764.684,407.588C764.968,407.305 765.426,407.163 766.059,407.163L773.659,407.163C774.293,407.163 774.751,407.305 775.034,407.588C775.318,407.872 775.459,408.33 775.459,408.963L775.459,433.713Z" style="fill-rule:nonzero;"/>
            <path d="M798.809,443.163L783.009,443.163C782.376,443.163 781.918,443.022 781.634,442.738C781.351,442.455 781.209,441.997 781.209,441.363L781.209,435.513C781.209,434.88 781.351,434.422 781.634,434.138C781.918,433.855 782.376,433.713 783.009,433.713L796.459,433.713C796.893,433.713 797.218,433.572 797.434,433.288C797.651,433.005 797.759,432.663 797.759,432.263C797.759,431.697 797.651,431.28 797.434,431.013C797.218,430.747 796.893,430.597 796.459,430.563L788.959,429.513C786.626,429.18 784.751,428.413 783.334,427.213C781.918,426.013 781.209,424.013 781.209,421.213L781.209,415.963C781.209,413.13 782.126,410.955 783.959,409.438C785.793,407.922 788.326,407.163 791.559,407.163L805.559,407.163C806.193,407.163 806.651,407.305 806.934,407.588C807.218,407.872 807.359,408.33 807.359,408.963L807.359,414.913C807.359,415.547 807.218,416.005 806.934,416.288C806.651,416.572 806.193,416.713 805.559,416.713L793.909,416.713C793.476,416.713 793.143,416.855 792.909,417.138C792.676,417.422 792.559,417.78 792.559,418.213C792.559,418.647 792.676,419.013 792.909,419.313C793.143,419.613 793.476,419.78 793.909,419.813L801.359,420.813C803.693,421.147 805.576,421.913 807.009,423.113C808.443,424.313 809.159,426.313 809.159,429.113L809.159,434.363C809.159,437.197 808.234,439.372 806.384,440.888C804.534,442.405 802.009,443.163 798.809,443.163Z" style="fill-rule:nonzero;"/>
            <path d="M831.059,443.163L815.259,443.163C814.626,443.163 814.168,443.022 813.884,442.738C813.601,442.455 813.459,441.997 813.459,441.363L813.459,435.513C813.459,434.88 813.601,434.422 813.884,434.138C814.168,433.855 814.626,433.713 815.259,433.713L828.709,433.713C829.143,433.713 829.468,433.572 829.684,433.288C829.901,433.005 830.009,432.663 830.009,432.263C830.009,431.697 829.901,431.28 829.684,431.013C829.468,430.747 829.143,430.597 828.709,430.563L821.209,429.513C818.876,429.18 817.001,428.413 815.584,427.213C814.168,426.013 813.459,424.013 813.459,421.213L813.459,415.963C813.459,413.13 814.376,410.955 816.209,409.438C818.043,407.922 820.576,407.163 823.809,407.163L837.809,407.163C838.443,407.163 838.901,407.305 839.184,407.588C839.468,407.872 839.609,408.33 839.609,408.963L839.609,414.913C839.609,415.547 839.468,416.005 839.184,416.288C838.901,416.572 838.443,416.713 837.809,416.713L826.159,416.713C825.726,416.713 825.393,416.855 825.159,417.138C824.926,417.422 824.809,417.78 824.809,418.213C824.809,418.647 824.926,419.013 825.159,419.313C825.393,419.613 825.726,419.78 826.159,419.813L833.609,420.813C835.943,421.147 837.826,421.913 839.259,423.113C840.693,424.313 841.409,426.313 841.409,429.113L841.409,434.363C841.409,437.197 840.484,439.372 838.634,440.888C836.784,442.405 834.259,443.163 831.059,443.163Z" style="fill-rule:nonzero;"/>
            <path d="M859.909,417.663L857.559,425.263L865.409,425.263L863.059,417.663C862.926,417.363 862.784,417.147 862.634,417.013C862.484,416.88 862.309,416.813 862.109,416.813L860.859,416.813C860.659,416.813 860.484,416.88 860.334,417.013C860.184,417.147 860.043,417.363 859.909,417.663ZM857.059,441.363C857.059,441.997 856.918,442.455 856.634,442.738C856.351,443.022 855.893,443.163 855.259,443.163L847.909,443.163C847.276,443.163 846.818,443.022 846.534,442.738C846.251,442.455 846.109,441.997 846.109,441.363L846.109,428.163C846.109,427.163 846.268,426.013 846.584,424.713C846.901,423.413 847.393,421.897 848.059,420.163L852.409,408.813C852.609,408.247 852.918,407.83 853.334,407.563C853.751,407.297 854.293,407.163 854.959,407.163L868.409,407.163C869.043,407.163 869.568,407.297 869.984,407.563C870.401,407.83 870.709,408.247 870.909,408.813L875.259,420.163C875.926,421.897 876.418,423.413 876.734,424.713C877.051,426.013 877.209,427.163 877.209,428.163L877.209,441.363C877.209,441.997 877.068,442.455 876.784,442.738C876.501,443.022 876.043,443.163 875.409,443.163L867.859,443.163C867.193,443.163 866.701,443.022 866.384,442.738C866.068,442.455 865.909,441.997 865.909,441.363L865.909,434.363L857.059,434.363L857.059,441.363Z" style="fill-rule:nonzero;"/>
        </g>
    </g>
</svg>
