<?xml version="1.0" encoding="UTF-8" standalone="no"?>
<!DOCTYPE svg PUBLIC "-//W3C//DTD SVG 1.1//EN" "http://www.w3.org/Graphics/SVG/1.1/DTD/svg11.dtd">
<svg width="100%" height="100%" viewBox="0 0 137 137" version="1.1" xmlns="http://www.w3.org/2000/svg" xmlns:xlink="http://www.w3.org/1999/xlink" xml:space="preserve" xmlns:serif="http://www.serif.com/" style="fill-rule:evenodd;clip-rule:evenodd;stroke-linejoin:round;stroke-miterlimit:1.41421;">
    <g transform="matrix(1,0,0,1,-75,-186.627)">
        <g transform="matrix(2.19899,0,0,2.19899,75,186.627)">
            <g transform="matrix(1,0,0,1,-792,-310)">
                <path d="M854,310L854,372L792,372L792,310L854,310ZM814.333,367L814.333,349.667L797,349.667L797,367L814.333,367ZM836.619,364.524L836.619,362.048L831.667,362.048L831.667,364.524L834.143,364.524L834.143,367L844.048,367L844.048,364.524L836.619,364.524ZM819.286,367L819.286,364.524L816.81,364.524L816.81,367L819.286,367ZM829.19,324.905L829.19,317.476L824.238,317.476L824.238,319.952L821.762,319.952L821.762,315L816.81,315L816.81,319.952L819.286,319.952L819.286,322.429L816.81,322.429L816.81,324.905L821.762,324.905L821.762,327.381L819.286,327.381L819.286,329.857L816.81,329.857L816.81,334.81L809.381,334.81L809.381,337.286L806.905,337.286L806.905,334.81L801.952,334.81L801.952,337.286L804.429,337.286L804.429,339.762L806.905,339.762L806.905,342.238L804.429,342.238L804.429,344.714L806.905,344.714L806.905,347.19L814.333,347.19L814.333,344.714L819.286,344.714L819.286,347.19L816.81,347.19L816.81,354.619L819.286,354.619L819.286,357.095L816.81,357.095L816.81,362.048L821.762,362.048L821.762,367L829.19,367L829.19,362.048L831.667,362.048L831.667,357.095L834.143,357.095L834.143,352.143L836.619,352.143L836.619,354.619L839.095,354.619L839.095,359.571L841.571,359.571L841.571,362.048L844.048,362.048L844.048,359.571L846.524,359.571L846.524,357.095L844.048,357.095L844.048,352.143L839.095,352.143L839.095,347.19L836.619,347.19L836.619,339.762L839.095,339.762L839.095,337.286L841.571,337.286L841.571,339.762L844.048,339.762L844.048,344.714L846.524,344.714L846.524,349.667L849,349.667L849,344.714L846.524,344.714L846.524,342.238L849,342.238L849,334.81L844.048,334.81L844.048,337.286L841.571,337.286L841.571,334.81L839.095,334.81L839.095,337.286L834.143,337.286L834.143,334.81L831.667,334.81L831.667,337.286L834.143,337.286L834.143,339.762L829.19,339.762L829.19,337.286L826.714,337.286L826.714,344.714L819.286,344.714L819.286,342.238L816.81,342.238L816.81,339.762L811.857,339.762L811.857,342.238L809.381,342.238L809.381,344.714L806.905,344.714L806.905,342.238L809.381,342.238L809.381,339.762L811.857,339.762L811.857,337.286L816.81,337.286L816.81,334.81L819.286,334.81L819.286,329.857L821.762,329.857L821.762,327.381L824.238,327.381L824.238,324.905L829.19,324.905ZM811.857,352.143L811.857,364.524L799.476,364.524L799.476,352.143L811.857,352.143ZM849,364.524L849,362.048L846.524,362.048L846.524,364.524L849,364.524ZM824.238,357.095L826.714,357.095L826.714,354.619L831.667,354.619L831.667,357.095L829.19,357.095L829.19,362.048L826.714,362.048L826.714,359.571L824.238,359.571L824.238,362.048L821.762,362.048L821.762,359.571L819.286,359.571L819.286,357.095L821.762,357.095L821.762,354.619L824.238,354.619L824.238,357.095ZM809.381,362.048L809.381,354.619L801.952,354.619L801.952,362.048L809.381,362.048ZM836.619,359.571L836.619,357.095L834.143,357.095L834.143,359.571L836.619,359.571ZM834.143,342.238L834.143,349.667L831.667,349.667L831.667,347.19L829.19,347.19L829.19,352.143L821.762,352.143L821.762,347.19L826.714,347.19L826.714,344.714L831.667,344.714L831.667,342.238L834.143,342.238ZM844.048,349.667L844.048,347.19L841.571,347.19L841.571,349.667L844.048,349.667ZM799.476,344.714L799.476,334.81L797,334.81L797,344.714L799.476,344.714L799.476,347.19L801.952,347.19L801.952,344.714L799.476,344.714ZM814.333,342.238L814.333,344.714L811.857,344.714L811.857,342.238L814.333,342.238ZM841.571,344.714L841.571,342.238L839.095,342.238L839.095,344.714L841.571,344.714ZM821.762,337.286L821.762,334.81L819.286,334.81L819.286,339.762L821.762,339.762L821.762,342.238L824.238,342.238L824.238,337.286L821.762,337.286ZM846.524,337.286L846.524,339.762L844.048,339.762L844.048,337.286L846.524,337.286ZM814.333,332.333L814.333,315L797,315L797,332.333L814.333,332.333ZM824.238,332.333L824.238,329.857L821.762,329.857L821.762,332.333L824.238,332.333ZM849,332.333L849,315L831.667,315L831.667,332.333L849,332.333ZM829.19,332.333L829.19,329.857L826.714,329.857L826.714,332.333L829.19,332.333ZM811.857,317.476L811.857,329.857L799.476,329.857L799.476,317.476L811.857,317.476ZM846.524,317.476L846.524,329.857L834.143,329.857L834.143,317.476L846.524,317.476ZM809.381,327.381L809.381,319.952L801.952,319.952L801.952,327.381L809.381,327.381ZM844.048,327.381L844.048,319.952L836.619,319.952L836.619,327.381L844.048,327.381ZM824.238,322.429L824.238,324.905L821.762,324.905L821.762,322.429L824.238,322.429Z" style="fill:white;"/>
            </g>
        </g>
    </g>
</svg>
