<?xml version="1.0" encoding="UTF-8" standalone="no"?>
<!DOCTYPE svg PUBLIC "-//W3C//DTD SVG 1.1//EN" "http://www.w3.org/Graphics/SVG/1.1/DTD/svg11.dtd">
<svg width="100%" height="100%" viewBox="0 0 364 62" version="1.1" xmlns="http://www.w3.org/2000/svg" xmlns:xlink="http://www.w3.org/1999/xlink" xml:space="preserve" xmlns:serif="http://www.serif.com/" style="fill-rule:evenodd;clip-rule:evenodd;stroke-linejoin:round;stroke-miterlimit:1.41421;">
    <g transform="matrix(1,0,0,1,-792,-310)">
        <path d="M854,310L854,372L792,372L792,310L854,310ZM814.333,367L814.333,349.667L797,349.667L797,367L814.333,367ZM836.619,364.524L836.619,362.048L831.667,362.048L831.667,364.524L834.143,364.524L834.143,367L844.048,367L844.048,364.524L836.619,364.524ZM819.286,367L819.286,364.524L816.81,364.524L816.81,367L819.286,367ZM829.19,324.905L829.19,317.476L824.238,317.476L824.238,319.952L821.762,319.952L821.762,315L816.81,315L816.81,319.952L819.286,319.952L819.286,322.429L816.81,322.429L816.81,324.905L821.762,324.905L821.762,327.381L819.286,327.381L819.286,329.857L816.81,329.857L816.81,334.81L809.381,334.81L809.381,337.286L806.905,337.286L806.905,334.81L801.952,334.81L801.952,337.286L804.429,337.286L804.429,339.762L806.905,339.762L806.905,342.238L804.429,342.238L804.429,344.714L806.905,344.714L806.905,347.19L814.333,347.19L814.333,344.714L819.286,344.714L819.286,347.19L816.81,347.19L816.81,354.619L819.286,354.619L819.286,357.095L816.81,357.095L816.81,362.048L821.762,362.048L821.762,367L829.19,367L829.19,362.048L831.667,362.048L831.667,357.095L834.143,357.095L834.143,352.143L836.619,352.143L836.619,354.619L839.095,354.619L839.095,359.571L841.571,359.571L841.571,362.048L844.048,362.048L844.048,359.571L846.524,359.571L846.524,357.095L844.048,357.095L844.048,352.143L839.095,352.143L839.095,347.19L836.619,347.19L836.619,339.762L839.095,339.762L839.095,337.286L841.571,337.286L841.571,339.762L844.048,339.762L844.048,344.714L846.524,344.714L846.524,349.667L849,349.667L849,344.714L846.524,344.714L846.524,342.238L849,342.238L849,334.81L844.048,334.81L844.048,337.286L841.571,337.286L841.571,334.81L839.095,334.81L839.095,337.286L834.143,337.286L834.143,334.81L831.667,334.81L831.667,337.286L834.143,337.286L834.143,339.762L829.19,339.762L829.19,337.286L826.714,337.286L826.714,344.714L819.286,344.714L819.286,342.238L816.81,342.238L816.81,339.762L811.857,339.762L811.857,342.238L809.381,342.238L809.381,344.714L806.905,344.714L806.905,342.238L809.381,342.238L809.381,339.762L811.857,339.762L811.857,337.286L816.81,337.286L816.81,334.81L819.286,334.81L819.286,329.857L821.762,329.857L821.762,327.381L824.238,327.381L824.238,324.905L829.19,324.905ZM811.857,352.143L811.857,364.524L799.476,364.524L799.476,352.143L811.857,352.143ZM849,364.524L849,362.048L846.524,362.048L846.524,364.524L849,364.524ZM824.238,357.095L826.714,357.095L826.714,354.619L831.667,354.619L831.667,357.095L829.19,357.095L829.19,362.048L826.714,362.048L826.714,359.571L824.238,359.571L824.238,362.048L821.762,362.048L821.762,359.571L819.286,359.571L819.286,357.095L821.762,357.095L821.762,354.619L824.238,354.619L824.238,357.095ZM809.381,362.048L809.381,354.619L801.952,354.619L801.952,362.048L809.381,362.048ZM836.619,359.571L836.619,357.095L834.143,357.095L834.143,359.571L836.619,359.571ZM834.143,342.238L834.143,349.667L831.667,349.667L831.667,347.19L829.19,347.19L829.19,352.143L821.762,352.143L821.762,347.19L826.714,347.19L826.714,344.714L831.667,344.714L831.667,342.238L834.143,342.238ZM844.048,349.667L844.048,347.19L841.571,347.19L841.571,349.667L844.048,349.667ZM799.476,344.714L799.476,334.81L797,334.81L797,344.714L799.476,344.714L799.476,347.19L801.952,347.19L801.952,344.714L799.476,344.714ZM814.333,342.238L814.333,344.714L811.857,344.714L811.857,342.238L814.333,342.238ZM841.571,344.714L841.571,342.238L839.095,342.238L839.095,344.714L841.571,344.714ZM821.762,337.286L821.762,334.81L819.286,334.81L819.286,339.762L821.762,339.762L821.762,342.238L824.238,342.238L824.238,337.286L821.762,337.286ZM846.524,337.286L846.524,339.762L844.048,339.762L844.048,337.286L846.524,337.286ZM814.333,332.333L814.333,315L797,315L797,332.333L814.333,332.333ZM824.238,332.333L824.238,329.857L821.762,329.857L821.762,332.333L824.238,332.333ZM849,332.333L849,315L831.667,315L831.667,332.333L849,332.333ZM829.19,332.333L829.19,329.857L826.714,329.857L826.714,332.333L829.19,332.333ZM811.857,317.476L811.857,329.857L799.476,329.857L799.476,317.476L811.857,317.476ZM846.524,317.476L846.524,329.857L834.143,329.857L834.143,317.476L846.524,317.476ZM809.381,327.381L809.381,319.952L801.952,319.952L801.952,327.381L809.381,327.381ZM844.048,327.381L844.048,319.952L836.619,319.952L836.619,327.381L844.048,327.381ZM824.238,322.429L824.238,324.905L821.762,324.905L821.762,322.429L824.238,322.429Z" style="fill:white;"/>
        <g transform="matrix(1,0,0,1,8.70819,-45.3842)">
            <path d="M879.842,404.009L872.092,404.009C871.458,404.009 871,403.868 870.717,403.584C870.433,403.301 870.292,402.843 870.292,402.209L870.292,369.809C870.292,369.176 870.433,368.718 870.717,368.434C871,368.151 871.458,368.009 872.092,368.009L879.842,368.009C880.475,368.009 880.933,368.151 881.217,368.434C881.5,368.718 881.642,369.176 881.642,369.809L881.642,380.659L889.992,380.659L889.992,369.809C889.992,369.176 890.133,368.718 890.417,368.434C890.7,368.151 891.158,368.009 891.792,368.009L899.542,368.009C900.175,368.009 900.633,368.151 900.917,368.434C901.2,368.718 901.342,369.176 901.342,369.809L901.342,402.209C901.342,402.843 901.2,403.301 900.917,403.584C900.633,403.868 900.175,404.009 899.542,404.009L891.792,404.009C891.158,404.009 890.7,403.868 890.417,403.584C890.133,403.301 889.992,402.843 889.992,402.209L889.992,391.109L881.642,391.109L881.642,402.209C881.642,402.843 881.5,403.301 881.217,403.584C880.933,403.868 880.475,404.009 879.842,404.009Z" style="fill:white;fill-rule:nonzero;"/>
            <path d="M921.292,378.509L918.942,386.109L926.792,386.109L924.442,378.509C924.308,378.209 924.167,377.993 924.017,377.859C923.867,377.726 923.692,377.659 923.492,377.659L922.242,377.659C922.042,377.659 921.867,377.726 921.717,377.859C921.567,377.993 921.425,378.209 921.292,378.509ZM918.442,402.209C918.442,402.843 918.3,403.301 918.017,403.584C917.733,403.868 917.275,404.009 916.642,404.009L909.292,404.009C908.658,404.009 908.2,403.868 907.917,403.584C907.633,403.301 907.492,402.843 907.492,402.209L907.492,389.009C907.492,388.009 907.65,386.859 907.967,385.559C908.283,384.259 908.775,382.743 909.442,381.009L913.792,369.659C913.992,369.093 914.3,368.676 914.717,368.409C915.133,368.143 915.675,368.009 916.342,368.009L929.792,368.009C930.425,368.009 930.95,368.143 931.367,368.409C931.783,368.676 932.092,369.093 932.292,369.659L936.642,381.009C937.308,382.743 937.8,384.259 938.117,385.559C938.433,386.859 938.592,388.009 938.592,389.009L938.592,402.209C938.592,402.843 938.45,403.301 938.167,403.584C937.883,403.868 937.425,404.009 936.792,404.009L929.242,404.009C928.575,404.009 928.083,403.868 927.767,403.584C927.45,403.301 927.292,402.843 927.292,402.209L927.292,395.209L918.442,395.209L918.442,402.209Z" style="fill:white;fill-rule:nonzero;"/>
            <path d="M971.992,404.009L946.542,404.009C945.908,404.009 945.45,403.868 945.167,403.584C944.883,403.301 944.742,402.843 944.742,402.209L944.742,369.809C944.742,369.176 944.883,368.718 945.167,368.434C945.45,368.151 945.908,368.009 946.542,368.009L954.292,368.009C954.925,368.009 955.383,368.151 955.667,368.434C955.95,368.718 956.092,369.176 956.092,369.809L956.092,394.559L962.942,394.559L962.942,386.459C962.942,385.826 963.083,385.368 963.367,385.084C963.65,384.801 964.108,384.659 964.742,384.659L971.992,384.659C972.625,384.659 973.083,384.801 973.367,385.084C973.65,385.368 973.792,385.826 973.792,386.459L973.792,402.209C973.792,402.843 973.65,403.301 973.367,403.584C973.083,403.868 972.625,404.009 971.992,404.009Z" style="fill:white;fill-rule:nonzero;"/>
            <path d="M1006.74,404.009L981.292,404.009C980.658,404.009 980.2,403.868 979.917,403.584C979.633,403.301 979.492,402.843 979.492,402.209L979.492,369.809C979.492,369.176 979.633,368.718 979.917,368.434C980.2,368.151 980.658,368.009 981.292,368.009L989.042,368.009C989.675,368.009 990.133,368.151 990.417,368.434C990.7,368.718 990.842,369.176 990.842,369.809L990.842,394.559L997.692,394.559L997.692,386.459C997.692,385.826 997.833,385.368 998.117,385.084C998.4,384.801 998.858,384.659 999.492,384.659L1006.74,384.659C1007.38,384.659 1007.83,384.801 1008.12,385.084C1008.4,385.368 1008.54,385.826 1008.54,386.459L1008.54,402.209C1008.54,402.843 1008.4,403.301 1008.12,403.584C1007.83,403.868 1007.38,404.009 1006.74,404.009Z" style="fill:white;fill-rule:nonzero;"/>
            <path d="M1044.89,394.559C1044.89,396.093 1044.67,397.484 1044.22,398.734C1043.77,399.984 1042.97,401.051 1041.82,401.934C1040.67,402.818 1039.09,403.509 1037.09,404.009C1035.09,404.509 1032.54,404.759 1029.44,404.759C1026.34,404.759 1023.79,404.509 1021.79,404.009C1019.79,403.509 1018.22,402.818 1017.07,401.934C1015.92,401.051 1015.12,399.984 1014.67,398.734C1014.22,397.484 1013.99,396.093 1013.99,394.559L1013.99,369.809C1013.99,369.176 1014.13,368.718 1014.42,368.434C1014.7,368.151 1015.16,368.009 1015.79,368.009L1023.64,368.009C1024.28,368.009 1024.73,368.151 1025.02,368.434C1025.3,368.718 1025.44,369.176 1025.44,369.809L1025.44,392.609C1025.44,393.276 1025.69,393.834 1026.19,394.284C1026.69,394.734 1027.81,394.959 1029.54,394.959C1031.31,394.959 1032.44,394.734 1032.94,394.284C1033.44,393.834 1033.69,393.276 1033.69,392.609L1033.69,369.809C1033.69,369.176 1033.83,368.718 1034.12,368.434C1034.4,368.151 1034.86,368.009 1035.49,368.009L1043.09,368.009C1043.72,368.009 1044.18,368.151 1044.47,368.434C1044.75,368.718 1044.89,369.176 1044.89,369.809L1044.89,394.559Z" style="fill:white;fill-rule:nonzero;"/>
            <path d="M1068.24,404.009L1052.44,404.009C1051.81,404.009 1051.35,403.868 1051.07,403.584C1050.78,403.301 1050.64,402.843 1050.64,402.209L1050.64,396.359C1050.64,395.726 1050.78,395.268 1051.07,394.984C1051.35,394.701 1051.81,394.559 1052.44,394.559L1065.89,394.559C1066.33,394.559 1066.65,394.418 1066.87,394.134C1067.08,393.851 1067.19,393.509 1067.19,393.109C1067.19,392.543 1067.08,392.126 1066.87,391.859C1066.65,391.593 1066.33,391.443 1065.89,391.409L1058.39,390.359C1056.06,390.026 1054.18,389.259 1052.77,388.059C1051.35,386.859 1050.64,384.859 1050.64,382.059L1050.64,376.809C1050.64,373.976 1051.56,371.801 1053.39,370.284C1055.22,368.768 1057.76,368.009 1060.99,368.009L1074.99,368.009C1075.62,368.009 1076.08,368.151 1076.37,368.434C1076.65,368.718 1076.79,369.176 1076.79,369.809L1076.79,375.759C1076.79,376.393 1076.65,376.851 1076.37,377.134C1076.08,377.418 1075.62,377.559 1074.99,377.559L1063.34,377.559C1062.91,377.559 1062.58,377.701 1062.34,377.984C1062.11,378.268 1061.99,378.626 1061.99,379.059C1061.99,379.493 1062.11,379.859 1062.34,380.159C1062.58,380.459 1062.91,380.626 1063.34,380.659L1070.79,381.659C1073.12,381.993 1075.01,382.759 1076.44,383.959C1077.88,385.159 1078.59,387.159 1078.59,389.959L1078.59,395.209C1078.59,398.043 1077.67,400.218 1075.82,401.734C1073.97,403.251 1071.44,404.009 1068.24,404.009Z" style="fill:white;fill-rule:nonzero;"/>
            <path d="M1100.49,404.009L1084.69,404.009C1084.06,404.009 1083.6,403.868 1083.32,403.584C1083.03,403.301 1082.89,402.843 1082.89,402.209L1082.89,396.359C1082.89,395.726 1083.03,395.268 1083.32,394.984C1083.6,394.701 1084.06,394.559 1084.69,394.559L1098.14,394.559C1098.58,394.559 1098.9,394.418 1099.12,394.134C1099.33,393.851 1099.44,393.509 1099.44,393.109C1099.44,392.543 1099.33,392.126 1099.12,391.859C1098.9,391.593 1098.58,391.443 1098.14,391.409L1090.64,390.359C1088.31,390.026 1086.43,389.259 1085.02,388.059C1083.6,386.859 1082.89,384.859 1082.89,382.059L1082.89,376.809C1082.89,373.976 1083.81,371.801 1085.64,370.284C1087.47,368.768 1090.01,368.009 1093.24,368.009L1107.24,368.009C1107.88,368.009 1108.33,368.151 1108.62,368.434C1108.9,368.718 1109.04,369.176 1109.04,369.809L1109.04,375.759C1109.04,376.393 1108.9,376.851 1108.62,377.134C1108.33,377.418 1107.88,377.559 1107.24,377.559L1095.59,377.559C1095.16,377.559 1094.83,377.701 1094.59,377.984C1094.36,378.268 1094.24,378.626 1094.24,379.059C1094.24,379.493 1094.36,379.859 1094.59,380.159C1094.83,380.459 1095.16,380.626 1095.59,380.659L1103.04,381.659C1105.38,381.993 1107.26,382.759 1108.69,383.959C1110.12,385.159 1110.84,387.159 1110.84,389.959L1110.84,395.209C1110.84,398.043 1109.92,400.218 1108.07,401.734C1106.22,403.251 1103.69,404.009 1100.49,404.009Z" style="fill:white;fill-rule:nonzero;"/>
            <path d="M1129.34,378.509L1126.99,386.109L1134.84,386.109L1132.49,378.509C1132.36,378.209 1132.22,377.993 1132.07,377.859C1131.92,377.726 1131.74,377.659 1131.54,377.659L1130.29,377.659C1130.09,377.659 1129.92,377.726 1129.77,377.859C1129.62,377.993 1129.48,378.209 1129.34,378.509ZM1126.49,402.209C1126.49,402.843 1126.35,403.301 1126.07,403.584C1125.78,403.868 1125.33,404.009 1124.69,404.009L1117.34,404.009C1116.71,404.009 1116.25,403.868 1115.97,403.584C1115.68,403.301 1115.54,402.843 1115.54,402.209L1115.54,389.009C1115.54,388.009 1115.7,386.859 1116.02,385.559C1116.33,384.259 1116.83,382.743 1117.49,381.009L1121.84,369.659C1122.04,369.093 1122.35,368.676 1122.77,368.409C1123.18,368.143 1123.73,368.009 1124.39,368.009L1137.84,368.009C1138.48,368.009 1139,368.143 1139.42,368.409C1139.83,368.676 1140.14,369.093 1140.34,369.659L1144.69,381.009C1145.36,382.743 1145.85,384.259 1146.17,385.559C1146.48,386.859 1146.64,388.009 1146.64,389.009L1146.64,402.209C1146.64,402.843 1146.5,403.301 1146.22,403.584C1145.93,403.868 1145.48,404.009 1144.84,404.009L1137.29,404.009C1136.62,404.009 1136.13,403.868 1135.82,403.584C1135.5,403.301 1135.34,402.843 1135.34,402.209L1135.34,395.209L1126.49,395.209L1126.49,402.209Z" style="fill:white;fill-rule:nonzero;"/>
        </g>
    </g>
</svg>
